<svg width="20" height="20" viewBox="0 0 20 20" fill="none" xmlns="http://www.w3.org/2000/svg">
<path id="Vector" d="M10 13.375L13.375 10M13.375 10L10 6.625M13.375 10H1M1 4.65402V4.60022C1 3.3401 1 2.70957 1.24524 2.22827C1.46095 1.80491 1.80491 1.46095 2.22827 1.24524C2.70957 1 3.3401 1 4.60022 1H15.4002C16.6603 1 17.2895 1 17.7708 1.24524C18.1942 1.46095 18.5393 1.80491 18.755 2.22827C19 2.7091 19 3.33887 19 4.59652V15.404C19 16.6617 19 17.2905 18.755 17.7714C18.5393 18.1947 18.1942 18.5393 17.7708 18.755C17.29 19 16.6611 19 15.4035 19H4.59652C3.33887 19 2.7091 19 2.22827 18.755C1.80491 18.5393 1.46095 18.1944 1.24524 17.771C1 17.2897 1 16.6601 1 15.4V15.3438" stroke="white" stroke-width="2" stroke-linecap="round" stroke-linejoin="round"/>
</svg>
