<svg width="38" height="38" viewBox="0 0 38 38" fill="none" xmlns="http://www.w3.org/2000/svg">
<path d="M27 24.3425V18.7945C27 18.2602 26.9995 17.9929 26.9346 17.7442C26.877 17.5239 26.7825 17.3154 26.6546 17.1269C26.5102 16.9143 26.3096 16.738 25.9074 16.3861L21.1074 12.1861C20.3608 11.5328 19.9875 11.2063 19.5674 11.0821C19.1972 10.9726 18.8026 10.9726 18.4324 11.0821C18.0126 11.2063 17.6398 11.5324 16.8944 12.1847L12.0928 16.3861C11.6906 16.738 11.49 16.9143 11.3457 17.1269C11.2178 17.3154 11.1225 17.5239 11.065 17.7442C11 17.9929 11 18.2602 11 18.7945V24.3425C11 25.2743 11 25.7401 11.1522 26.1076C11.3552 26.5977 11.7443 26.9875 12.2344 27.1905C12.6019 27.3427 13.0679 27.3427 13.9997 27.3427C14.9316 27.3427 15.3981 27.3427 15.7656 27.1905C16.2557 26.9875 16.6447 26.5978 16.8477 26.1077C16.9999 25.7402 17 25.2742 17 24.3424V23.3424C17 22.2378 17.8954 21.3424 19 21.3424C20.1046 21.3424 21 22.2378 21 23.3424V24.3424C21 25.2742 21 25.7402 21.1522 26.1077C21.3552 26.5978 21.7443 26.9875 22.2344 27.1905C22.6019 27.3427 23.0679 27.3427 23.9997 27.3427C24.9316 27.3427 25.3981 27.3427 25.7656 27.1905C26.2557 26.9875 26.6447 26.5977 26.8477 26.1076C26.9999 25.7401 27 25.2743 27 24.3425Z" stroke="white" stroke-width="2" stroke-linecap="round" stroke-linejoin="round"/>
</svg>
