<svg width="38" height="38" viewBox="0 0 38 38" fill="none" xmlns="http://www.w3.org/2000/svg">
<path d="M24 26C24 24.3431 21.7614 23 19 23C16.2386 23 14 24.3431 14 26M28 23.0004C28 21.7702 26.7659 20.7129 25 20.25M10 23.0004C10 21.7702 11.2341 20.7129 13 20.25M25 16.2361C25.6137 15.6868 26 14.8885 26 14C26 12.3431 24.6569 11 23 11C22.2316 11 21.5308 11.2889 21 11.7639M13 16.2361C12.3863 15.6868 12 14.8885 12 14C12 12.3431 13.3431 11 15 11C15.7684 11 16.4692 11.2889 17 11.7639M19 20C17.3431 20 16 18.6569 16 17C16 15.3431 17.3431 14 19 14C20.6569 14 22 15.3431 22 17C22 18.6569 20.6569 20 19 20Z" stroke="white" stroke-width="2" stroke-linecap="round" stroke-linejoin="round"/>
</svg>
