<svg width="38" height="38" viewBox="0 0 38 38" fill="none" xmlns="http://www.w3.org/2000/svg">
<path d="M29.0238 15.4098L28.5842 15.1721C28.5159 15.1352 28.4823 15.1167 28.4494 15.0975C28.1215 14.9066 27.8452 14.6429 27.6436 14.3274C27.6233 14.2957 27.6042 14.2624 27.5651 14.1966C27.526 14.1309 27.5062 14.0976 27.4881 14.0646C27.3072 13.7364 27.2093 13.3706 27.2035 12.9983C27.2029 12.9608 27.203 12.9226 27.2043 12.8466L27.2129 12.3504C27.2267 11.5563 27.2336 11.1581 27.1188 10.8007C27.0168 10.4832 26.8462 10.1908 26.6184 9.94268C26.3608 9.66218 26.0044 9.46207 25.2907 9.06235L24.6979 8.73034C23.9862 8.33173 23.6303 8.13236 23.2524 8.05636C22.9182 7.98912 22.5732 7.99223 22.2401 8.0649C21.8642 8.14692 21.5127 8.35149 20.8101 8.76038L20.8061 8.76224L20.3814 9.00943C20.3142 9.04852 20.2802 9.06822 20.2466 9.08641C19.9125 9.26694 19.5396 9.36676 19.1575 9.37867C19.119 9.37988 19.0799 9.37988 19.0015 9.37988C18.9237 9.37988 18.8829 9.37988 18.8445 9.37867C18.4616 9.36671 18.0879 9.26634 17.7533 9.08507C17.7196 9.0668 17.6862 9.04694 17.6189 9.00768L17.1915 8.75825C16.4841 8.34548 16.1298 8.13879 15.7518 8.05636C15.4174 7.98343 15.0713 7.98141 14.7358 8.04952C14.357 8.12642 14.001 8.32727 13.2889 8.72897L13.2857 8.73034L12.7003 9.06057L12.6938 9.06443C11.9881 9.46251 11.6344 9.66203 11.3791 9.94138C11.1525 10.1893 10.9831 10.4812 10.8817 10.7978C10.7671 11.1557 10.7732 11.5548 10.787 12.3526L10.7956 12.8481C10.7969 12.9231 10.7992 12.9604 10.7986 12.9973C10.7929 13.3704 10.6938 13.7369 10.5124 14.0657C10.4944 14.0983 10.4751 14.1308 10.4365 14.1957C10.3979 14.2607 10.3792 14.2931 10.3591 14.3244C10.1566 14.6416 9.879 14.9069 9.5491 15.0981C9.51647 15.117 9.48208 15.1352 9.41451 15.1716L8.98046 15.4054C8.2583 15.7943 7.89731 15.989 7.63463 16.266C7.40225 16.5111 7.2267 16.8017 7.11955 17.1183C6.99842 17.4762 6.99852 17.8774 7.0004 18.6799L7.00193 19.3358C7.00379 20.1329 7.00635 20.5312 7.12775 20.8866C7.23515 21.2011 7.40941 21.49 7.64049 21.7336C7.90168 22.0089 8.25909 22.2024 8.97577 22.5899L9.40595 22.8225C9.47916 22.8621 9.516 22.8816 9.5513 22.9023C9.87821 23.0936 10.1536 23.3581 10.3544 23.6735C10.3761 23.7076 10.397 23.7429 10.4386 23.8136C10.4797 23.8835 10.5008 23.9184 10.5198 23.9534C10.6959 24.2774 10.7902 24.6374 10.7966 25.0038C10.7973 25.0434 10.7967 25.0834 10.7953 25.1639L10.787 25.6394C10.7731 26.4399 10.7671 26.8406 10.8823 27.1995C10.9843 27.5169 11.1547 27.8093 11.3826 28.0575C11.6401 28.338 11.9971 28.538 12.7108 28.9377L13.3035 29.2696C14.0152 29.6682 14.3709 29.8674 14.7488 29.9434C15.083 30.0106 15.4282 30.008 15.7612 29.9353C16.1377 29.8532 16.4904 29.6479 17.195 29.2379L17.6197 28.9907C17.6869 28.9516 17.721 28.9319 17.7546 28.9138C18.0887 28.7332 18.4613 28.6329 18.8433 28.621C18.8818 28.6198 18.9209 28.6198 18.9993 28.6198C19.0778 28.6198 19.1169 28.6198 19.1555 28.621C19.5383 28.633 19.9132 28.7336 20.2477 28.9149C20.2772 28.9308 20.3067 28.9481 20.3585 28.9783L20.81 29.2418C21.5175 29.6546 21.871 29.8607 22.249 29.9431C22.5834 30.0161 22.9298 30.019 23.2653 29.9509C23.644 29.8741 24.0008 29.6728 24.7125 29.2713L25.3067 28.9361C26.0128 28.5378 26.3669 28.338 26.6224 28.0586C26.849 27.8107 27.0186 27.5189 27.1199 27.2023C27.2337 26.847 27.2268 26.451 27.2132 25.6647L27.2043 25.1519C27.2031 25.0769 27.2029 25.0395 27.2035 25.0026C27.2091 24.6296 27.3066 24.2628 27.4881 23.9339C27.506 23.9015 27.5254 23.8687 27.5639 23.8039C27.6026 23.739 27.6225 23.7066 27.6426 23.6752C27.8451 23.358 28.123 23.0925 28.4529 22.9013C28.4851 22.8826 28.5183 22.8648 28.5843 22.8292L28.5865 22.8282L29.0206 22.5944C29.7427 22.2055 30.1044 22.0106 30.3671 21.7336C30.5995 21.4885 30.7748 21.1983 30.882 20.8817C31.0024 20.5259 31.0014 20.127 30.9996 19.3339L30.998 18.6639C30.9962 17.8668 30.9951 17.4686 30.8737 17.1132C30.7663 16.7987 30.5911 16.5098 30.36 16.2662C30.0991 15.9911 29.7412 15.7976 29.0259 15.4108L29.0238 15.4098Z" stroke="white" stroke-width="2" stroke-linecap="round" stroke-linejoin="round"/>
<path d="M14.1985 19.0001C14.1985 21.5777 16.3484 23.6672 19.0004 23.6672C21.6524 23.6672 23.8022 21.5777 23.8022 19.0001C23.8022 16.4225 21.6524 14.3329 19.0004 14.3329C16.3484 14.3329 14.1985 16.4225 14.1985 19.0001Z" stroke="white" stroke-width="2" stroke-linecap="round" stroke-linejoin="round"/>
</svg>
